<svg width="306" height="306" viewBox="0 0 306 306" fill="none" xmlns="http://www.w3.org/2000/svg">
<path d="M145 122C147.761 122 150 124.239 150 127V147C150 149.761 152.239 152 155 152H175C177.761 152 180 154.239 180 157V237C180 239.761 177.761 242 175 242H95C92.2386 242 90 239.761 90 237V217C90 214.239 87.7614 212 85 212H65C62.2386 212 60 209.761 60 207V127C60 124.239 62.2386 122 65 122H145ZM95 152C92.2386 152 90 154.239 90 157V207C90 209.761 92.2386 212 95 212H145C147.761 212 150 209.761 150 207V157C150 154.239 147.761 152 145 152H95ZM235 62C237.761 62 240 64.2386 240 67V207C240 209.761 237.761 212 235 212H215C212.239 212 210 209.761 210 207V127C210 124.239 207.761 122 205 122H185C182.239 122 180 119.761 180 117V97C180 94.2386 182.239 92 185 92H205C207.761 92 210 89.7614 210 87V67C210 64.2386 212.239 62 215 62H235Z" fill="black"/>
</svg>
