<svg width="426" height="426" viewBox="0 0 426 426" fill="none" xmlns="http://www.w3.org/2000/svg">
<path d="M205 212C207.761 212 210 214.239 210 217V267C210 269.761 207.761 272 205 272H155C152.239 272 150 269.761 150 267V217C150 214.239 152.239 212 155 212H205Z" fill="black"/>
<path fill-rule="evenodd" clip-rule="evenodd" d="M366 326C366 348.091 348.091 366 326 366H100C77.9086 366 60 348.091 60 326V100C60 77.9086 77.9086 60 100 60H326C348.091 60 366 77.9086 366 100V326ZM125 182C122.239 182 120 184.239 120 187V267C120 269.761 122.239 272 125 272H145C147.761 272 150 274.239 150 277V297C150 299.761 152.239 302 155 302H235C237.761 302 240 299.761 240 297V217C240 214.239 237.761 212 235 212H215C212.239 212 210 209.761 210 207V187C210 184.239 207.761 182 205 182H125ZM275 122C272.239 122 270 124.239 270 127V147C270 149.761 267.761 152 265 152H245C242.239 152 240 154.239 240 157V177C240 179.761 242.239 182 245 182H265C267.761 182 270 184.239 270 187V267C270 269.761 272.239 272 275 272H295C297.761 272 300 269.761 300 267V127C300 124.239 297.761 122 295 122H275Z" fill="black"/>
</svg>
