<svg width="2400" height="1000" viewBox="0 0 2400 1000" fill="none" xmlns="http://www.w3.org/2000/svg">
<path d="M873.05 500.495C873.05 505.839 872.694 510.649 871.981 514.924H763.762C764.653 525.613 768.394 533.985 774.985 540.042C781.576 546.099 789.681 549.127 799.301 549.127C813.195 549.127 823.082 543.159 828.961 531.224H869.309C865.034 545.475 856.839 557.232 844.726 566.496C832.613 575.581 817.738 580.123 800.102 580.123C785.851 580.123 773.025 577.006 761.624 570.771C750.401 564.358 741.584 555.362 735.171 543.783C728.936 532.204 725.818 518.843 725.818 503.702C725.818 488.382 728.936 474.932 735.171 463.353C741.405 451.774 750.134 442.867 761.357 436.632C772.58 430.398 785.495 427.28 800.102 427.28C814.175 427.28 826.734 430.309 837.779 436.365C849.001 442.422 857.641 451.062 863.698 462.284C869.933 473.329 873.05 486.066 873.05 500.495ZM834.305 489.807C834.127 480.187 830.653 472.527 823.884 466.827C817.114 460.948 808.831 458.009 799.033 458.009C789.77 458.009 781.932 460.859 775.519 466.56C769.284 472.082 765.454 479.831 764.029 489.807H834.305Z" fill="#1A1A1A"/>
<path d="M982.121 577.718L951.659 531.759L924.671 577.718H884.59L932.955 503.434L884.056 429.685H926.274L956.469 475.378L983.724 429.685H1023.81L975.174 503.434L1024.34 577.718H982.121Z" fill="#1A1A1A"/>
<path d="M1035.04 503.702C1035.04 488.382 1038.16 475.021 1044.39 463.62C1050.63 452.041 1059.27 443.135 1070.31 436.9C1081.35 430.487 1094 427.28 1108.25 427.28C1126.6 427.28 1141.74 431.912 1153.68 441.175C1165.79 450.26 1173.9 463.086 1177.99 479.653H1137.65C1135.51 473.24 1131.86 468.252 1126.69 464.689C1121.7 460.948 1115.47 459.078 1107.99 459.078C1097.3 459.078 1088.84 462.997 1082.6 470.835C1076.37 478.495 1073.25 489.451 1073.25 503.702C1073.25 517.775 1076.37 528.73 1082.6 536.568C1088.84 544.228 1097.3 548.058 1107.99 548.058C1123.13 548.058 1133.01 541.289 1137.65 527.75H1177.99C1173.9 543.783 1165.79 556.52 1153.68 565.961C1141.57 575.403 1126.42 580.123 1108.25 580.123C1094 580.123 1081.35 577.006 1070.31 570.771C1059.27 564.358 1050.63 555.451 1044.39 544.05C1038.16 532.471 1035.04 519.022 1035.04 503.702Z" fill="#1A1A1A"/>
<path d="M1288.77 427.547C1299.99 427.547 1309.97 430.041 1318.7 435.029C1327.43 439.839 1334.19 447.054 1339 456.673C1343.99 466.114 1346.49 477.515 1346.49 490.876V577.718H1309.08V495.953C1309.08 484.195 1306.14 475.199 1300.26 468.965C1294.38 462.552 1286.36 459.345 1276.21 459.345C1265.88 459.345 1257.68 462.552 1251.63 468.965C1245.75 475.199 1242.81 484.195 1242.81 495.953V577.718H1205.4V379.984H1242.81V448.122C1247.62 441.709 1254.03 436.722 1262.05 433.159C1270.06 429.418 1278.97 427.547 1288.77 427.547Z" fill="#1A1A1A"/>
<path d="M1372.44 503.167C1372.44 488.204 1375.38 474.932 1381.26 463.353C1387.32 451.774 1395.42 442.867 1405.57 436.632C1415.91 430.398 1427.4 427.28 1440.04 427.28C1451.09 427.28 1460.71 429.507 1468.9 433.96C1477.28 438.414 1483.96 444.025 1488.94 450.794V429.685H1526.62V577.718H1488.94V556.074C1484.13 563.022 1477.45 568.811 1468.9 573.443C1460.53 577.896 1450.82 580.123 1439.78 580.123C1427.31 580.123 1415.91 576.917 1405.57 570.504C1395.42 564.091 1387.32 555.095 1381.26 543.516C1375.38 531.759 1372.44 518.309 1372.44 503.167ZM1488.94 503.702C1488.94 494.617 1487.16 486.868 1483.6 480.455C1480.04 473.863 1475.23 468.876 1469.17 465.491C1463.11 461.928 1456.61 460.147 1449.66 460.147C1442.72 460.147 1436.3 461.839 1430.42 465.224C1424.55 468.608 1419.74 473.596 1416 480.187C1412.43 486.6 1410.65 494.26 1410.65 503.167C1410.65 512.074 1412.43 519.912 1416 526.682C1419.74 533.273 1424.55 538.35 1430.42 541.912C1436.48 545.475 1442.89 547.257 1449.66 547.257C1456.61 547.257 1463.11 545.564 1469.17 542.18C1475.23 538.617 1480.04 533.629 1483.6 527.216C1487.16 520.625 1488.94 512.787 1488.94 503.702Z" fill="#1A1A1A"/>
<path d="M1645.19 427.547C1662.82 427.547 1677.08 433.159 1687.94 444.382C1698.81 455.426 1704.24 470.924 1704.24 490.876V577.718H1666.83V495.953C1666.83 484.195 1663.89 475.199 1658.02 468.965C1652.14 462.552 1644.12 459.345 1633.97 459.345C1623.63 459.345 1615.44 462.552 1609.38 468.965C1603.5 475.199 1600.57 484.195 1600.57 495.953V577.718H1563.16V429.685H1600.57V448.122C1605.55 441.709 1611.88 436.722 1619.54 433.159C1627.38 429.418 1635.93 427.547 1645.19 427.547Z" fill="#1A1A1A"/>
<path d="M1797.8 427.28C1808.85 427.28 1818.55 429.507 1826.93 433.96C1835.3 438.236 1841.89 443.847 1846.7 450.794V429.685H1884.38V578.787C1884.38 592.504 1881.61 604.706 1876.09 615.395C1870.57 626.261 1862.29 634.812 1851.24 641.047C1840.2 647.46 1826.84 650.666 1811.16 650.666C1790.14 650.666 1772.86 645.767 1759.32 635.97C1745.96 626.172 1738.39 612.812 1736.61 595.888H1773.75C1775.71 602.658 1779.9 608.002 1786.31 611.921C1792.9 616.018 1800.83 618.067 1810.09 618.067C1820.96 618.067 1829.78 614.771 1836.55 608.18C1843.31 601.767 1846.7 591.969 1846.7 578.787V555.807C1841.89 562.755 1835.21 568.544 1826.66 573.176C1818.29 577.807 1808.67 580.123 1797.8 580.123C1785.33 580.123 1773.93 576.917 1763.6 570.504C1753.27 564.091 1745.07 555.095 1739.01 543.516C1733.14 531.759 1730.2 518.309 1730.2 503.167C1730.2 488.204 1733.14 474.932 1739.01 463.353C1745.07 451.774 1753.18 442.867 1763.33 436.632C1773.66 430.398 1785.15 427.28 1797.8 427.28ZM1846.7 503.702C1846.7 494.617 1844.92 486.868 1841.36 480.455C1837.79 473.863 1832.98 468.876 1826.93 465.491C1820.87 461.928 1814.37 460.147 1807.42 460.147C1800.47 460.147 1794.06 461.839 1788.18 465.224C1782.3 468.608 1777.49 473.596 1773.75 480.187C1770.19 486.6 1768.41 494.26 1768.41 503.167C1768.41 512.074 1770.19 519.912 1773.75 526.682C1777.49 533.273 1782.3 538.35 1788.18 541.912C1794.24 545.475 1800.65 547.257 1807.42 547.257C1814.37 547.257 1820.87 545.564 1826.93 542.18C1832.98 538.617 1837.79 533.629 1841.36 527.216C1844.92 520.625 1846.7 512.787 1846.7 503.702Z" fill="#1A1A1A"/>
<path d="M2058.52 500.495C2058.52 505.839 2058.17 510.649 2057.46 514.924H1949.24C1950.13 525.613 1953.87 533.985 1960.46 540.042C1967.05 546.099 1975.16 549.127 1984.78 549.127C1998.67 549.127 2008.56 543.159 2014.44 531.224H2054.78C2050.51 545.475 2042.31 557.232 2030.2 566.496C2018.09 575.581 2003.21 580.123 1985.58 580.123C1971.33 580.123 1958.5 577.006 1947.1 570.771C1935.88 564.358 1927.06 555.362 1920.65 543.783C1914.41 532.204 1911.29 518.843 1911.29 503.702C1911.29 488.382 1914.41 474.932 1920.65 463.353C1926.88 451.774 1935.61 442.867 1946.83 436.632C1958.05 430.398 1970.97 427.28 1985.58 427.28C1999.65 427.28 2012.21 430.309 2023.25 436.365C2034.48 442.422 2043.12 451.062 2049.17 462.284C2055.41 473.329 2058.52 486.066 2058.52 500.495ZM2019.78 489.807C2019.6 480.187 2016.13 472.527 2009.36 466.827C2002.59 460.948 1994.31 458.009 1984.51 458.009C1975.24 458.009 1967.41 460.859 1960.99 466.56C1954.76 472.082 1950.93 479.831 1949.5 489.807H2019.78Z" fill="#1A1A1A"/>
<path fill-rule="evenodd" clip-rule="evenodd" d="M607 347C629.091 347 647 364.909 647 387V613C647 635.091 629.091 653 607 653H381C358.909 653 341 635.091 341 613V387C341 364.909 358.909 347 381 347H607Z" fill="#1A1A1A"/>
<path fill-rule="evenodd" clip-rule="evenodd" d="M486 469C488.761 469 491 471.239 491 474V494C491 496.761 493.239 499 496 499H516C518.761 499 521 501.239 521 504V584C521 586.761 518.761 589 516 589H436C433.239 589 431 586.761 431 584V564C431 561.239 428.761 559 426 559H406C403.239 559 401 556.761 401 554V474C401 471.239 403.239 469 406 469H486ZM436 499C433.239 499 431 501.239 431 504V554C431 556.761 433.239 559 436 559H486C488.761 559 491 556.761 491 554V504C491 501.239 488.761 499 486 499H436Z" fill="#9CD6FF"/>
<path fill-rule="evenodd" clip-rule="evenodd" d="M486 469C488.761 469 491 471.239 491 474V494C491 496.761 493.239 499 496 499H516C518.761 499 521 501.239 521 504V584C521 586.761 518.761 589 516 589H436C433.239 589 431 586.761 431 584V564C431 561.239 428.761 559 426 559H406C403.239 559 401 556.761 401 554V474C401 471.239 403.239 469 406 469H486ZM436 499C433.239 499 431 501.239 431 504V554C431 556.761 433.239 559 436 559H486C488.761 559 491 556.761 491 554V504C491 501.239 488.761 499 486 499H436Z" fill="url(#paint0_linear_4192_2307)"/>
<path d="M576 409C578.761 409 581 411.239 581 414V554C581 556.761 578.761 559 576 559H556C553.239 559 551 556.761 551 554V474C551 471.239 548.761 469 546 469H526C523.239 469 521 466.761 521 464V444C521 441.239 523.239 439 526 439H546C548.761 439 551 436.761 551 434V414C551 411.239 553.239 409 556 409H576Z" fill="#9CD6FF"/>
<path d="M576 409C578.761 409 581 411.239 581 414V554C581 556.761 578.761 559 576 559H556C553.239 559 551 556.761 551 554V474C551 471.239 548.761 469 546 469H526C523.239 469 521 466.761 521 464V444C521 441.239 523.239 439 526 439H546C548.761 439 551 436.761 551 434V414C551 411.239 553.239 409 556 409H576Z" fill="url(#paint1_linear_4192_2307)"/>
<defs>
<linearGradient id="paint0_linear_4192_2307" x1="580.722" y1="498.709" x2="401.278" y2="498.709" gradientUnits="userSpaceOnUse">
<stop stop-color="#9CD6FF"/>
<stop offset="1" stop-color="white"/>
</linearGradient>
<linearGradient id="paint1_linear_4192_2307" x1="580.722" y1="498.709" x2="401.278" y2="498.709" gradientUnits="userSpaceOnUse">
<stop stop-color="#9CD6FF"/>
<stop offset="1" stop-color="white"/>
</linearGradient>
</defs>
</svg>
