<svg width="426" height="426" viewBox="0 0 426 426" fill="none" xmlns="http://www.w3.org/2000/svg">
<path fill-rule="evenodd" clip-rule="evenodd" d="M326 60C348.091 60 366 77.9086 366 100V326C366 348.091 348.091 366 326 366H100C77.9086 366 60 348.091 60 326V100C60 77.9086 77.9086 60 100 60H326Z" fill="#1A1A1A"/>
<path fill-rule="evenodd" clip-rule="evenodd" d="M205 182C207.761 182 210 184.239 210 187V207C210 209.761 212.239 212 215 212H235C237.761 212 240 214.239 240 217V297C240 299.761 237.761 302 235 302H155C152.239 302 150 299.761 150 297V277C150 274.239 147.761 272 145 272H125C122.239 272 120 269.761 120 267V187C120 184.239 122.239 182 125 182H205ZM155 212C152.239 212 150 214.239 150 217V267C150 269.761 152.239 272 155 272H205C207.761 272 210 269.761 210 267V217C210 214.239 207.761 212 205 212H155Z" fill="#9CD6FF"/>
<path fill-rule="evenodd" clip-rule="evenodd" d="M205 182C207.761 182 210 184.239 210 187V207C210 209.761 212.239 212 215 212H235C237.761 212 240 214.239 240 217V297C240 299.761 237.761 302 235 302H155C152.239 302 150 299.761 150 297V277C150 274.239 147.761 272 145 272H125C122.239 272 120 269.761 120 267V187C120 184.239 122.239 182 125 182H205ZM155 212C152.239 212 150 214.239 150 217V267C150 269.761 152.239 272 155 272H205C207.761 272 210 269.761 210 267V217C210 214.239 207.761 212 205 212H155Z" fill="url(#paint0_linear_4192_2314)"/>
<path d="M295 122C297.761 122 300 124.239 300 127V267C300 269.761 297.761 272 295 272H275C272.239 272 270 269.761 270 267V187C270 184.239 267.761 182 265 182H245C242.239 182 240 179.761 240 177V157C240 154.239 242.239 152 245 152H265C267.761 152 270 149.761 270 147V127C270 124.239 272.239 122 275 122H295Z" fill="#9CD6FF"/>
<path d="M295 122C297.761 122 300 124.239 300 127V267C300 269.761 297.761 272 295 272H275C272.239 272 270 269.761 270 267V187C270 184.239 267.761 182 265 182H245C242.239 182 240 179.761 240 177V157C240 154.239 242.239 152 245 152H265C267.761 152 270 149.761 270 147V127C270 124.239 272.239 122 275 122H295Z" fill="url(#paint1_linear_4192_2314)"/>
<defs>
<linearGradient id="paint0_linear_4192_2314" x1="299.722" y1="211.709" x2="120.278" y2="211.709" gradientUnits="userSpaceOnUse">
<stop stop-color="#9CD6FF"/>
<stop offset="1" stop-color="white"/>
</linearGradient>
<linearGradient id="paint1_linear_4192_2314" x1="299.722" y1="211.709" x2="120.278" y2="211.709" gradientUnits="userSpaceOnUse">
<stop stop-color="#9CD6FF"/>
<stop offset="1" stop-color="white"/>
</linearGradient>
</defs>
</svg>
