<svg width="2400" height="1000" viewBox="0 0 2400 1000" fill="none" xmlns="http://www.w3.org/2000/svg">
<path d="M722.24 725.513C713.274 725.513 705.204 723.552 698.031 719.629C690.859 715.595 685.199 709.935 681.052 702.65C677.017 695.365 675 686.959 675 677.433C675 667.907 677.073 659.501 681.22 652.216C685.479 644.931 691.251 639.327 698.536 635.405C705.821 631.37 713.946 629.353 722.912 629.353C731.878 629.353 740.004 631.37 747.289 635.405C754.574 639.327 760.289 644.931 764.436 652.216C768.695 659.501 770.824 667.907 770.824 677.433C770.824 686.959 768.639 695.365 764.268 702.65C760.009 709.935 754.181 715.595 746.784 719.629C739.499 723.552 731.318 725.513 722.24 725.513ZM722.24 705.004C726.499 705.004 730.477 703.995 734.176 701.978C737.986 699.848 741.012 696.71 743.254 692.563C745.495 688.416 746.616 683.373 746.616 677.433C746.616 668.579 744.263 661.799 739.555 657.091C734.96 652.272 729.301 649.862 722.576 649.862C715.851 649.862 710.192 652.272 705.597 657.091C701.114 661.799 698.872 668.579 698.872 677.433C698.872 686.287 701.058 693.124 705.428 697.943C709.911 702.65 715.515 705.004 722.24 705.004Z" fill="white"/>
<path d="M782.541 623.133V601.446H823.056V724H798.848V623.133H782.541Z" fill="white"/>
<path d="M859.42 725.177C855.161 725.177 851.631 723.888 848.829 721.311C846.139 718.621 844.794 715.315 844.794 711.392C844.794 707.469 846.139 704.219 848.829 701.641C851.631 698.952 855.161 697.607 859.42 697.607C863.567 697.607 866.985 698.952 869.675 701.641C872.365 704.219 873.71 707.469 873.71 711.392C873.71 715.315 872.365 718.621 869.675 721.311C866.985 723.888 863.567 725.177 859.42 725.177Z" fill="white"/>
<path d="M979.245 675.416C979.245 678.778 979.021 681.804 978.573 684.494H910.487C911.047 691.218 913.401 696.486 917.548 700.296C921.695 704.107 926.794 706.012 932.846 706.012C941.588 706.012 947.808 702.258 951.507 694.749H976.892C974.202 703.715 969.046 711.112 961.425 716.94C953.804 722.655 944.446 725.513 933.35 725.513C924.384 725.513 916.315 723.552 909.142 719.629C902.081 715.595 896.534 709.935 892.499 702.65C888.576 695.365 886.615 686.959 886.615 677.433C886.615 667.795 888.576 659.333 892.499 652.048C896.422 644.763 901.913 639.159 908.974 635.237C916.035 631.314 924.16 629.353 933.35 629.353C942.204 629.353 950.106 631.258 957.054 635.069C964.115 638.879 969.551 644.315 973.361 651.376C977.284 658.324 979.245 666.338 979.245 675.416ZM954.869 668.691C954.757 662.639 952.571 657.82 948.312 654.233C944.054 650.535 938.842 648.686 932.678 648.686C926.85 648.686 921.919 650.479 917.884 654.065C913.961 657.54 911.552 662.415 910.655 668.691H954.869Z" fill="white"/>
<path d="M1047.87 724L1028.7 695.085L1011.72 724H986.506L1016.93 677.265L986.169 630.866H1012.73L1031.73 659.613L1048.88 630.866H1074.09L1043.5 677.265L1074.43 724H1047.87Z" fill="white"/>
<path d="M1081.16 677.433C1081.16 667.795 1083.12 659.389 1087.04 652.216C1090.97 644.931 1096.4 639.327 1103.35 635.405C1110.3 631.37 1118.26 629.353 1127.22 629.353C1138.77 629.353 1148.29 632.267 1155.8 638.095C1163.42 643.81 1168.52 651.88 1171.1 662.303H1145.72C1144.37 658.268 1142.07 655.13 1138.82 652.889C1135.68 650.535 1131.76 649.358 1127.05 649.358C1120.33 649.358 1115.01 651.824 1111.08 656.755C1107.16 661.574 1105.2 668.467 1105.2 677.433C1105.2 686.287 1107.16 693.18 1111.08 698.111C1115.01 702.93 1120.33 705.34 1127.05 705.34C1136.58 705.34 1142.8 701.081 1145.72 692.563H1171.1C1168.52 702.65 1163.42 710.663 1155.8 716.603C1148.18 722.543 1138.65 725.513 1127.22 725.513C1118.26 725.513 1110.3 723.552 1103.35 719.629C1096.4 715.595 1090.97 709.991 1087.04 702.818C1083.12 695.533 1081.16 687.072 1081.16 677.433Z" fill="white"/>
<path d="M1240.79 629.521C1247.85 629.521 1254.13 631.09 1259.62 634.228C1265.11 637.254 1269.37 641.793 1272.4 647.845C1275.54 653.785 1277.11 660.958 1277.11 669.364V724H1253.57V672.558C1253.57 665.161 1251.72 659.501 1248.02 655.578C1244.32 651.544 1239.28 649.526 1232.89 649.526C1226.39 649.526 1221.24 651.544 1217.43 655.578C1213.73 659.501 1211.88 665.161 1211.88 672.558V724H1188.34V599.597H1211.88V642.466C1214.9 638.431 1218.94 635.293 1223.98 633.051C1229.03 630.698 1234.63 629.521 1240.79 629.521Z" fill="white"/>
<path d="M1293.44 677.097C1293.44 667.682 1295.28 659.333 1298.98 652.048C1302.79 644.763 1307.89 639.159 1314.28 635.237C1320.78 631.314 1328.01 629.353 1335.97 629.353C1342.92 629.353 1348.97 630.754 1354.12 633.556C1359.39 636.357 1363.59 639.888 1366.73 644.147V630.866H1390.44V724H1366.73V710.383C1363.71 714.754 1359.5 718.397 1354.12 721.311C1348.86 724.112 1342.75 725.513 1335.8 725.513C1327.95 725.513 1320.78 723.496 1314.28 719.461C1307.89 715.427 1302.79 709.767 1298.98 702.482C1295.28 695.085 1293.44 686.623 1293.44 677.097ZM1366.73 677.433C1366.73 671.717 1365.61 666.842 1363.37 662.807C1361.13 658.66 1358.1 655.522 1354.29 653.393C1350.48 651.151 1346.39 650.031 1342.02 650.031C1337.65 650.031 1333.61 651.095 1329.92 653.225C1326.22 655.354 1323.19 658.492 1320.84 662.639C1318.6 666.674 1317.48 671.493 1317.48 677.097C1317.48 682.701 1318.6 687.632 1320.84 691.891C1323.19 696.038 1326.22 699.232 1329.92 701.473C1333.73 703.715 1337.76 704.835 1342.02 704.835C1346.39 704.835 1350.48 703.771 1354.29 701.641C1358.1 699.4 1361.13 696.262 1363.37 692.227C1365.61 688.08 1366.73 683.149 1366.73 677.433Z" fill="white"/>
<path d="M1465.03 629.521C1476.13 629.521 1485.1 633.051 1491.93 640.112C1498.77 647.061 1502.19 656.811 1502.19 669.364V724H1478.65V672.558C1478.65 665.161 1476.8 659.501 1473.1 655.578C1469.41 651.544 1464.36 649.526 1457.97 649.526C1451.47 649.526 1446.32 651.544 1442.51 655.578C1438.81 659.501 1436.96 665.161 1436.96 672.558V724H1413.42V630.866H1436.96V642.466C1440.1 638.431 1444.08 635.293 1448.9 633.051C1453.83 630.698 1459.21 629.521 1465.03 629.521Z" fill="white"/>
<path d="M1561.05 629.353C1568 629.353 1574.11 630.754 1579.37 633.556C1584.64 636.245 1588.79 639.776 1591.81 644.147V630.866H1615.52V724.673C1615.52 733.303 1613.78 740.98 1610.31 747.704C1606.83 754.541 1601.62 759.921 1594.67 763.843C1587.72 767.878 1579.32 769.895 1569.45 769.895C1556.23 769.895 1545.36 766.813 1536.84 760.649C1528.44 754.485 1523.67 746.079 1522.55 735.432H1545.92C1547.15 739.691 1549.79 743.053 1553.82 745.519C1557.97 748.097 1562.95 749.385 1568.78 749.385C1575.62 749.385 1581.17 747.312 1585.43 743.165C1589.68 739.131 1591.81 732.966 1591.81 724.673V710.215C1588.79 714.586 1584.59 718.228 1579.21 721.142C1573.94 724.056 1567.89 725.513 1561.05 725.513C1553.2 725.513 1546.03 723.496 1539.53 719.461C1533.03 715.427 1527.88 709.767 1524.06 702.482C1520.37 695.085 1518.52 686.623 1518.52 677.097C1518.52 667.682 1520.37 659.333 1524.06 652.048C1527.88 644.763 1532.97 639.159 1539.36 635.237C1545.86 631.314 1553.09 629.353 1561.05 629.353ZM1591.81 677.433C1591.81 671.717 1590.69 666.842 1588.45 662.807C1586.21 658.66 1583.18 655.522 1579.37 653.393C1575.56 651.151 1571.47 650.031 1567.1 650.031C1562.73 650.031 1558.7 651.095 1555 653.225C1551.3 655.354 1548.27 658.492 1545.92 662.639C1543.68 666.674 1542.56 671.493 1542.56 677.097C1542.56 682.701 1543.68 687.632 1545.92 691.891C1548.27 696.038 1551.3 699.232 1555 701.473C1558.81 703.715 1562.84 704.835 1567.1 704.835C1571.47 704.835 1575.56 703.771 1579.37 701.641C1583.18 699.4 1586.21 696.262 1588.45 692.227C1590.69 688.08 1591.81 683.149 1591.81 677.433Z" fill="white"/>
<path d="M1725.08 675.416C1725.08 678.778 1724.86 681.804 1724.41 684.494H1656.32C1656.89 691.218 1659.24 696.486 1663.39 700.296C1667.53 704.107 1672.63 706.012 1678.68 706.012C1687.43 706.012 1693.65 702.258 1697.34 694.749H1722.73C1720.04 703.715 1714.88 711.112 1707.26 716.94C1699.64 722.655 1690.28 725.513 1679.19 725.513C1670.22 725.513 1662.15 723.552 1654.98 719.629C1647.92 715.595 1642.37 709.935 1638.34 702.65C1634.41 695.365 1632.45 686.959 1632.45 677.433C1632.45 667.795 1634.41 659.333 1638.34 652.048C1642.26 644.763 1647.75 639.159 1654.81 635.237C1661.87 631.314 1670 629.353 1679.19 629.353C1688.04 629.353 1695.94 631.258 1702.89 635.069C1709.95 638.879 1715.39 644.315 1719.2 651.376C1723.12 658.324 1725.08 666.338 1725.08 675.416ZM1700.71 668.691C1700.59 662.639 1698.41 657.82 1694.15 654.233C1689.89 650.535 1684.68 648.686 1678.52 648.686C1672.69 648.686 1667.76 650.479 1663.72 654.065C1659.8 657.54 1657.39 662.415 1656.49 668.691H1700.71Z" fill="white"/>
<path d="M1192.28 382C1195.04 382 1197.28 384.239 1197.28 387V437C1197.28 439.761 1195.04 442 1192.28 442H1142.28C1139.52 442 1137.28 439.761 1137.28 437V387C1137.28 384.239 1139.52 382 1142.28 382H1192.28Z" fill="white"/>
<path fill-rule="evenodd" clip-rule="evenodd" d="M1353.28 496C1353.28 518.091 1335.37 536 1313.28 536H1087.28C1065.19 536 1047.28 518.091 1047.28 496V270C1047.28 247.909 1065.19 230 1087.28 230H1313.28C1335.37 230 1353.28 247.909 1353.28 270V496ZM1112.28 352C1109.52 352 1107.28 354.239 1107.28 357V437C1107.28 439.761 1109.52 442 1112.28 442H1132.28C1135.04 442 1137.28 444.239 1137.28 447V467C1137.28 469.761 1139.52 472 1142.28 472H1222.28C1225.04 472 1227.28 469.761 1227.28 467V387C1227.28 384.239 1225.04 382 1222.28 382H1202.28C1199.52 382 1197.28 379.761 1197.28 377V357C1197.28 354.239 1195.04 352 1192.28 352H1112.28ZM1262.28 292C1259.52 292 1257.28 294.239 1257.28 297V317C1257.28 319.761 1255.04 322 1252.28 322H1232.28C1229.52 322 1227.28 324.239 1227.28 327V347C1227.28 349.761 1229.52 352 1232.28 352H1252.28C1255.04 352 1257.28 354.239 1257.28 357V437C1257.28 439.761 1259.52 442 1262.28 442H1282.28C1285.04 442 1287.28 439.761 1287.28 437V297C1287.28 294.239 1285.04 292 1282.28 292H1262.28Z" fill="white"/>
</svg>
